<?xml version="1.0" standalone="no"?>
<!DOCTYPE svg PUBLIC "-//W3C//DTD SVG 20010904//EN"
 "http://www.w3.org/TR/2001/REC-SVG-20010904/DTD/svg10.dtd">
<svg version="1.0" xmlns="http://www.w3.org/2000/svg"
 width="300.000000pt" height="300.000000pt" viewBox="0 0 300.000000 300.000000"
 preserveAspectRatio="xMidYMid meet">
<metadata>
Created by potrace 1.11, written by Peter Selinger 2001-2013
</metadata>
<g transform="translate(0.000000,300.000000) scale(0.100000,-0.100000)"
fill="#000000" stroke="none">
<path d="M0 2745 l0 -255 250 0 250 0 0 -147 -1 -148 -59 -34 c-33 -19 -92
-67 -131 -108 l-71 -73 -119 0 -119 0 0 -255 0 -255 49 0 48 0 7 -67 c15 -150
57 -267 138 -386 l39 -57 -141 0 -140 0 0 -255 0 -255 250 0 250 0 0 -225 0
-225 250 0 250 0 0 225 0 225 250 0 250 0 0 -225 0 -225 250 0 250 0 0 225 0
225 250 0 250 0 0 -225 0 -225 250 0 250 0 0 225 0 225 -250 0 -250 0 0 255 0
255 250 0 250 0 0 255 0 255 -80 0 c-77 0 -91 5 -70 26 5 5 19 36 30 69 39
110 36 290 -5 398 -6 15 0 17 59 17 l66 0 0 255 0 255 -250 0 -250 0 0 255 0
255 -250 0 -250 0 0 -255 0 -255 -250 0 -250 0 0 255 0 255 -250 0 -250 0 0
-255 0 -255 -250 0 -250 0 0 255 0 255 -250 0 -250 0 0 -255z m1500 -510 l0
-255 75 0 75 0 0 -255 0 -255 -75 0 -75 0 0 -255 0 -255 75 0 75 0 0 -98 c0
-63 4 -102 12 -110 8 -8 62 -12 175 -12 l163 0 0 -145 0 -145 -250 0 -250 0 0
255 0 255 -50 0 -49 0 -3 101 c-4 130 -11 137 -95 86 -78 -47 -178 -85 -248
-93 l-55 -7 0 212 0 211 -225 0 -225 0 0 58 c0 109 43 233 103 302 65 74 173
120 282 120 l65 0 0 -240 0 -240 250 0 250 0 0 255 0 255 -50 0 -49 0 -3 93
-3 92 -45 22 c-71 35 -188 71 -272 84 l-78 12 0 103 0 104 250 0 250 0 0 -255z
m1000 129 l0 -126 -22 7 c-13 3 -125 9 -250 12 l-228 6 0 113 0 114 250 0 250
0 0 -126z m0 -1254 l0 -150 -205 0 -205 0 0 140 0 140 88 1 c48 1 125 4 172 8
47 5 100 9 118 9 l32 2 0 -150z m-1800 -376 c49 -10 130 -18 192 -18 l108 -1
0 -132 0 -133 -250 0 -250 0 0 174 0 175 58 -24 c31 -12 95 -31 142 -41z"/>
</g>
</svg>
